<svg xmlns="http://www.w3.org/2000/svg" xmlns:xlink="http://www.w3.org/1999/xlink" version="1.1" x="0px" y="0px" viewBox="0 0 100 100" enable-background="new 0 0 100 100" xml:space="preserve"><path fill="#000000" d="M93.1,67.8l-3.9-15.2c0,0,0,0,0,0c0-0.1-0.1-0.2-0.2-0.3c0,0,0,0,0,0c0-0.1-0.1-0.1-0.1-0.1L78,43.5  l-0.9-3.6c0,0,0,0,0,0c0-0.1-0.1-0.2-0.2-0.3c0,0,0,0,0,0c0-0.1-0.1-0.1-0.1-0.1L52.2,19.9c-0.3-0.2-0.6-0.3-0.9-0.2l-18.2,5.7  c-0.1,0-0.2,0.1-0.3,0.1c0,0,0,0-0.1,0c-0.1,0.1-0.1,0.1-0.2,0.2c0,0,0,0,0,0l-0.6,1l-1.5-10.8c-0.1-0.5-0.5-0.9-1-0.9  s-0.9,0.4-1,0.9l-2.6,18.8L6.7,37.5c-0.5,0.1-0.9,0.5-0.9,1s0.4,0.9,0.9,1l18.7,2.6l0.3,2.1l-4.2,1.3c-0.1,0-0.2,0.1-0.3,0.1  c0,0,0,0-0.1,0.1c-0.1,0.1-0.1,0.1-0.2,0.2c0,0,0,0,0,0l-7.3,12.2c-0.3,0.4-0.2,1,0.2,1.3l30.3,24.2c0,0,0.1,0,0.1,0  c0,0,0.1,0.1,0.1,0.1c0.1,0,0.1,0.1,0.2,0.1c0,0,0.1,0,0.1,0c0,0,0.1,0,0.1,0c0,0,0,0,0,0c0,0,0,0,0,0c0,0,0,0,0,0c0,0,0,0,0,0  c0.1,0,0.2,0,0.3,0l23.7-7.4L92.4,69C92.9,68.9,93.2,68.3,93.1,67.8z M86.1,52.5l-5.3,1.7l-1.9-7.4L86.1,52.5z M68,69.7l-2.3-8.8  l3.2-1L68,69.7z M46.5,64.8L31.2,52.6l1.1-7.9l22.1,17.6L46.5,64.8z M27.3,41.1c-0.1-0.4-0.4-0.8-0.9-0.9l-12.3-1.7l11.8-1.6  l0.9-0.1c0.4-0.1,0.8-0.4,0.9-0.9l0.4-2.6l1.4-9.9l0.9,6.2l0.4,3.2l0.5,3.2c0.1,0.4,0.4,0.8,0.9,0.9l12.3,1.7l-12.7,1.8  c-0.4,0.1-0.7,0.3-0.8,0.7c0,0,0,0.1,0,0.1l-0.2,1.5l-0.1,0.6l-0.2,1.5l-0.9,6.3L29,53.5l0,0.2l0-0.2l-0.4-2.9l-0.7-5l-0.3-2  L27.3,41.1z M75.4,41.4l3.4,13.2l-21.4,6.6l1.4-14.7L75.4,41.4z M55.5,60.8L32.6,42.5l0-0.3l16.2-2.3l8,6.4L55.5,60.8z M51.4,21.8  l22.6,18l-15.9,4.9l-6.5-5.2l0.1,0c0.5-0.1,0.9-0.5,0.9-1s-0.4-0.9-0.9-1l-3.2-0.4L35.5,26.7L51.4,21.8z M33.7,27.8l11,8.7L33,34.9  L32.4,30L33.7,27.8z M25.9,46.2l0.4,2.6l-2.4-1.9L25.9,46.2z M22,47.9l4.7,3.7L28,61c0.1,0.5,0.5,0.9,1,0.9s0.9-0.4,1-0.9l0.8-6.1  l14.4,11.4l-1.4,14.5L15.8,58.4L22,47.9z M45.8,81.4l1.4-14.7l16.6-5.2l3.4,13.2L45.8,81.4z M69.6,74.1l1.4-14.7l16.6-5.2l3.4,13.2  L69.6,74.1z"></path></svg>