<svg xmlns="http://www.w3.org/2000/svg" xmlns:xlink="http://www.w3.org/1999/xlink" version="1.1" x="0px" y="0px" viewBox="0 0 600 600" style="enable-background:new 0 0 600 600;" xml:space="preserve"><path d="M307,176.5c-35.3,0-64.1-28.7-64.1-64.1c0-35.3,28.7-64.1,64.1-64.1s64.1,28.7,64.1,64.1C371.1,147.8,342.4,176.5,307,176.5  z M307,75.3c-20.5,0-37.2,16.7-37.2,37.2c0,20.5,16.7,37.2,37.2,37.2c20.5,0,37.2-16.7,37.2-37.2C344.2,91.9,327.5,75.3,307,75.3z"></path><path d="M335.9,548.7h-57.8c-7,0-12.8-5.4-13.4-12.4l-11.2-143.7c-0.2-2.6-2.4-4.6-5-4.6h-22.7c-7.4,0-13.4-6-13.4-13.4V203.7  c0-7.4,6-13.4,13.4-13.4h162.4c7.4,0,13.4,6,13.4,13.4v170.8c0,7.4-6,13.4-13.4,13.4h-22.7c-2.6,0-4.8,2-5,4.6l-11.2,143.7  C348.8,543.3,342.9,548.7,335.9,548.7z M295.2,521.8h23.6c2.6,0,4.8-2,5-4.6L335,373.5c0.5-7,6.4-12.4,13.4-12.4h21.4  c2.8,0,5-2.3,5-5V222.2c0-2.8-2.3-5-5-5H244.3c-2.8,0-5,2.3-5,5v133.9c0,2.8,2.3,5,5,5h21.4c7,0,12.8,5.4,13.4,12.4l11.2,143.7  C290.4,519.8,292.6,521.8,295.2,521.8z"></path></svg>