<svg xmlns="http://www.w3.org/2000/svg" xmlns:xlink="http://www.w3.org/1999/xlink" version="1.1" x="0px" y="0px" viewBox="0 0 100 100" style="enable-background:new 0 0 100 100;" xml:space="preserve"><style type="text/css">
	.st0{fill:#171717;}
</style><path class="st0" d="M89.6,27.5c0-0.6-0.2-1.1-0.5-1.5c0,0,0,0,0,0c0,0,0,0-0.1-0.1c-0.3-0.4-0.6-0.7-1-0.9l-9.4-5.3  c-0.3-0.2-0.7-0.3-1-0.4l-21.7-3.6c-0.6-0.1-1.3,0-1.8,0.2l-14.9,6.8c-0.3,0.1-0.6,0.1-0.9,0L30,19.3c-0.6-0.2-1.2-0.3-1.7-0.2  c-7.4,1.3-10.8,1.9-12.3,2.3c0,0-0.1,0-0.1,0c-0.1,0-0.3,0.1-0.4,0.2c-0.7,0.3-0.8,0.5-0.8,0.8c-0.2,0.5-1,2.4-1.6,3.7  c-1.1,2.4-1.2,2.7-1.2,2.8c0,0.2-0.1,0.4,0,5.5c0,0.3-0.1,0.7-0.4,0.9l-0.9,0.8c-0.5,0.4-0.8,1-1,1.6C8,44.1,8,44.3,8,44.5  c0,0.5,7.4,27,7.5,27.3c0.1,0.2,0.2,0.5,0.3,0.7c0,0,0,0,0,0c0,0,0,0,0,0c0.2,0.4,0.5,0.8,0.9,1c0,0,0,0,0,0l9.8,6.9  c0.4,0.3,1,0.5,1.5,0.6l26.9,2.8c0.1,0,0.2,0,0.3,0c0.6,0,1.2-0.2,1.7-0.5L85,65c0.2-0.1,0.4-0.3,0.6-0.5c0,0,0,0,0.1-0.1  c0.1-0.1,0.2-0.2,0.3-0.4l5.1-8c0.4-0.6,0.5-1.2,0.5-1.9L89.6,27.5z M77.6,21.4l8.8,5.1l-14.3,9.4c-8.4-5.7-11.7-7.9-13.2-8.6  l-2.5-9.5l20.9,3.5C77.4,21.3,77.5,21.3,77.6,21.4z M37.1,43l17.4-5.7l13.4,9.4l3.6,12.5L55.2,81.5L27.1,67L37.1,43z M58.6,29.3  c2.2,1.3,8.2,5.3,12.3,8.1l-2.7,7.1l-12.4-8.7L58.6,29.3z M73.3,60c0.2-0.2,0.2-0.6,0.2-0.9l-3.7-13l2.5-6.5l11.3,23.9L59.1,79.4  L73.3,60z M54.4,17.9l2.7,10l-3.1,7.4l-16.3,5.4l2-16.2c0.1,0,0.2-0.1,0.4-0.1L54.4,17.9z M28.6,21c0.2,0,0.4,0,0.6,0.1l8.2,3.4  c0,0,0.1,0,0.1,0l-2,15.8L18,27.2l-0.8-4.1C19.1,22.7,23.3,21.9,28.6,21z M10,44.4c0.1-0.7,0.7-3.1,1.5-6.4c0.1-0.2,0.2-0.4,0.4-0.6  l0.9-0.8c0.7-0.6,1.1-1.5,1.1-2.4c0-3.1,0-4.6,0-5c0.1-0.3,0.6-1.5,1.1-2.5c0.3-0.6,0.5-1.1,0.7-1.5l0.6,2.8c0,0.2,0.2,0.5,0.4,0.6  l18.6,13.9L25,66.7l-7.8,3.8C15.7,65.2,10.5,46.5,10,44.4z M27.6,78.7l-9.2-6.5l7.4-3.6l24.7,12.7l-22.3-2.4  C28,78.9,27.8,78.8,27.6,78.7z M89.3,54.9L85,61.8L73.4,37.4l14.2-9.3l1.9,26.1C89.5,54.5,89.5,54.7,89.3,54.9z"></path></svg>